<?xml version="1.0" encoding="UTF-8"?>
<svg width="380px" height="280px" viewBox="0 0 380 280" version="1.1" xmlns="http://www.w3.org/2000/svg" xmlns:xlink="http://www.w3.org/1999/xlink">
    <title>streamify-symbol</title>
    <g id="streamify-symbol" stroke="none" stroke-width="1" fill="none" fill-rule="evenodd">
        <g id="streamify-logo-pos-bluealt-copy" transform="translate(88.000000, 0.000000)" fill="#0041FF">
            <path d="M144.516835,139.989063 C144.516835,131.939692 140.492149,124.065307 133.142723,119.515663 L36.7252558,59.8890712 C32.9193032,57.5267557 28.5446449,56.3018514 24.0606203,56.3018514 C10.7616592,56.3018514 0,67.0635107 0,80.3624717 L0,139.989063 L0,199.615655 C0,212.914616 10.7616592,223.676275 24.0606203,223.676275 C28.5227717,223.676275 32.9193032,222.429498 36.7252558,220.089056 L133.142723,160.462464 C140.492149,155.912819 144.516835,148.038434 144.516835,139.989063 Z" id="Path"></path>
            <path d="M209.983595,0 L118.596985,0 C99.2609952,0 83.5997188,15.6612765 83.5997188,34.9972658 C83.5997188,46.8744629 89.6148738,57.9423483 99.5890946,64.3949691 L159.718772,103.241934 C172.645887,111.597531 179.667213,125.640184 179.689087,139.989063 C179.667213,154.316069 172.645887,168.358722 159.718772,176.736192 L99.6109679,215.605031 C89.6367471,222.057652 83.6215921,233.125537 83.6215921,245.002734 C83.6215921,264.338724 99.2828685,280 118.618858,280 L209.983595,280 C229.319584,280 244.980861,264.338724 244.980861,245.002734 L244.980861,139.989063 L244.980861,34.9972658 C244.980861,15.6612765 229.297711,0 209.983595,0 Z" id="Path"></path>
        </g>
    </g>
</svg>